<?xml version="1.0" encoding="UTF-8"?>
<svg xmlns="http://www.w3.org/2000/svg" xmlns:xlink="http://www.w3.org/1999/xlink" version="1.1" viewBox="0 0 48 48">
  <!-- Generator: Adobe Illustrator 28.6.0, SVG Export Plug-In . SVG Version: 1.2.0 Build 709)  -->
  <g>
    <g id="Layer_1">
      <g class="cls-4">
        <g>
          <rect class="cls-3" x="12.5" y="20.4" width="24" height="7.6" transform="translate(-8.7 33.3) rotate(-60)" fill="white"/>
          <path class="cls-5" d="M25.5,2.4c1.1,0,2,.9,2,2v2.6c7.2,1.4,12.8,7.2,14,14.4h2.2c1.1,0,2,.9,2,2v2.9c0,1.1-.9,2-2,2h-2.4c-1.5,6.8-7,12.1-13.8,13.4v2c0,1.1-.9,2-2,2h-2.9c-1.1,0-2-.9-2-2v-2c-6.8-1.3-12.3-6.6-13.8-13.4h-2.4c-1.1,0-2-.9-2-2v-2.9c0-1.1.9-2,2-2h2.2c1.2-7.2,6.8-13,14-14.4v-2.6c0-1.1.9-2,2-2h2.9ZM29.1,13.3c-.9-.5-2.1-.2-2.7.7l-9.8,17c-.5.9-.2,2.1.7,2.7l2.6,1.5c.9.5,2.1.2,2.7-.7l9.8-17c.5-.9.2-2.1-.7-2.7l-2.6-1.5Z" fill="white" stroke="black" stroke-width="3"/>
        </g>
      </g>
    </g>
  </g>
</svg>
