<svg width="48" height="48" viewBox="0 0 48 48" fill="none" xmlns="http://www.w3.org/2000/svg">
<g clip-path="url(#clip0_66_896)">
<rect x="27.5489" y="10.6056" width="8.42477" height="26.6364" transform="rotate(30 27.5489 10.6056)" fill="white"/>
<path d="M25.6364 0C26.8418 0 27.8182 0.976362 27.8182 2.18182L27.8196 5.03474C35.7808 6.60413 42.0139 12.987 43.3622 21.0268L45.8182 21.0272C47.0236 21.0272 48 22.0036 48 23.209V26.4817C48 27.6872 47.0236 28.6636 45.8182 28.6636L43.1467 28.6635C41.4398 36.1839 35.4166 42.0645 27.8196 43.562L27.8182 45.8182C27.8182 47.0236 26.8418 48 25.6364 48H22.3636C21.1582 48 20.1818 47.0236 20.1818 45.8182L20.1804 43.5614C12.5849 42.0629 6.56297 36.1829 4.85632 28.6635L2.18182 28.6636C0.976362 28.6636 0 27.6872 0 26.4817V23.209C0 22.0036 0.976362 21.0272 2.18182 21.0272L4.64088 21.0268C5.98904 12.988 12.2206 6.60573 20.1804 5.03533L20.1818 2.18182C20.1818 0.976362 21.1582 0 22.3636 0H25.6364ZM29.6736 12.1447C28.6307 11.5425 27.2954 11.8992 26.6932 12.9432L15.7841 31.8389C15.182 32.8818 15.5387 34.216 16.5827 34.8192L19.4169 36.4556C20.4609 37.0578 21.795 36.7 22.3972 35.657L33.3063 16.7614C33.9085 15.7174 33.5518 14.3832 32.5078 13.781L29.6736 12.1447Z" fill="currentColor"/>
</g>
<defs>
<clipPath id="clip0_66_896">
<rect width="48" height="48" fill="white"/>
</clipPath>
</defs>
</svg>
