<svg width="48px" height="48px" viewBox="0 0 16 16"
    xmlns="http://www.w3.org/2000/svg">
    <g transform="translate(-34.000000, -86.000000)" fill="#000">
        <path d="M42.5454545,86 C42.9472727,86 43.2727273,86.3254545 43.2727273,86.7272727 L43.2732066,87.6782486 C45.9269512,88.2013785 48.0046171,90.3289888 48.4540596,93.0089347 L49.2727273,93.0090632 C49.6745455,93.0090632 50,93.3345177 50,93.7363359 L50,94.827245 C50,95.2290632 49.6745455,95.5545177 49.2727273,95.5545177 L48.382242,95.554515 C47.8132851,98.0613074 45.8055299,100.021488 43.2732066,100.520678 L43.2727273,101.272727 C43.2727273,101.674545 42.9472727,102 42.5454545,102 L41.4545455,102 C41.0527273,102 40.7272727,101.674545 40.7272727,101.272727 L40.7268123,100.520481 C38.1949601,100.020972 36.1876582,98.0609777 35.6187762,95.554515 L34.7272727,95.5545177 C34.3254545,95.5545177 34,95.2290632 34,94.827245 L34,93.7363359 C34,93.3345177 34.3254545,93.0090632 34.7272727,93.0090632 L35.5469586,93.0089347 C35.9963447,90.3293252 38.0735455,88.2019126 40.7268123,87.6784456 L40.7272727,86.7272727 C40.7272727,86.3254545 41.0527273,86 41.4545455,86 L42.5454545,86 Z M43.8912,90.0482268 C43.5435636,89.8474995 43.0984727,89.9664086 42.8977455,90.3144086 L42.8977455,90.3144086 L39.2613818,96.6129541 C39.0606545,96.9605904 39.1795636,97.4053177 39.5275636,97.6064086 L39.5275636,97.6064086 L40.4722909,98.1518632 C40.8202909,98.3525904 41.2650182,98.2333177 41.4657455,97.8856813 L41.4657455,97.8856813 L45.1021091,91.5871359 C45.3028364,91.2391359 45.1839273,90.7944086 44.8359273,90.5936813 L44.8359273,90.5936813 Z" id="Airport"></path>
    </g>
</svg>
