<svg width="48" height="48" viewBox="0 0 48 48" fill="none" xmlns="http://www.w3.org/2000/svg">
<g clip-path="url(#clip0_1229_1934)">
<path d="M7 39V40.5H8.5H17.5398C20.716 40.5 23.5156 39.8581 25.8711 38.497L25.8757 38.4944C28.2223 37.1274 30.0076 35.1703 31.2196 32.6662L31.2207 32.6639C32.4268 30.1609 33 27.2374 33 23.9414C33 20.6663 32.432 17.7661 31.2343 15.2908C30.0362 12.8049 28.2897 10.8615 25.9989 9.51082C23.702 8.14669 20.9943 7.5 17.9403 7.5H8.5H7V9V39ZM17.3109 34.2773H13.5473V13.7227H17.7114C19.7957 13.7227 21.4169 14.1534 22.6595 14.9201L22.6595 14.9201L22.6654 14.9237C23.9209 15.6904 24.8775 16.7929 25.5353 18.2899L25.5366 18.2928C26.2052 19.8061 26.5672 21.6745 26.5672 23.9414C26.5672 26.2269 26.2007 28.1149 25.5225 29.6481C24.8602 31.1452 23.8765 32.2649 22.56 33.0561C21.2616 33.8364 19.5416 34.2773 17.3109 34.2773Z" fill="white" stroke="black" stroke-width="3"/>
<path d="M15 20.0308H14L14 21.0308L14 26.9692L14 27.9692H15H33.8387V33V35.2216L35.5017 33.7486L45.663 24.7486L46.5082 24L45.663 23.2514L35.5017 14.2514L33.8387 12.7784V15V20.0308H15Z" fill="white" stroke="black" stroke-width="2"/>
<rect x="1" y="21" width="5.5" height="6" fill="white" stroke="black" stroke-width="2"/>
</g>
<defs>
<clipPath id="clip0_1229_1934">
<rect width="48" height="48" fill="white"/>
</clipPath>
</defs>
</svg>
