<svg xmlns="http://www.w3.org/2000/svg" width="14" height="13" viewBox="0 0 14 13" fill="currentColor">
  <path d="M2.66667 4.87498H9.70833L8.84167 5.52498C8.78476 5.56766 8.73682 5.62113 8.70058 5.68234C8.66433 5.74355 8.6405 5.81129 8.63044 5.88171C8.62038 5.95213 8.62429 6.02384 8.64195 6.09275C8.6596 6.16165 8.69065 6.22641 8.73333 6.28331C8.78379 6.35059 8.84921 6.40519 8.92443 6.4428C8.99964 6.4804 9.08258 6.49998 9.16667 6.49998C9.28387 6.49998 9.39791 6.46197 9.49167 6.39165L11.6583 4.76665C11.7246 4.7161 11.7783 4.65094 11.8152 4.57625C11.8522 4.50156 11.8714 4.41935 11.8714 4.33602C11.8714 4.25269 11.8522 4.17048 11.8152 4.09579C11.7783 4.0211 11.7246 3.95595 11.6583 3.9054L9.5675 2.2804C9.45401 2.19205 9.31007 2.1524 9.16735 2.17018C9.02462 2.18795 8.89481 2.2617 8.80646 2.37519C8.71811 2.48868 8.67846 2.63262 8.69624 2.77534C8.71401 2.91806 8.78776 3.04788 8.90125 3.13623L9.75167 3.79165H2.66667C2.52301 3.79165 2.38523 3.84872 2.28365 3.9503C2.18207 4.05188 2.125 4.18965 2.125 4.33331C2.125 4.47697 2.18207 4.61475 2.28365 4.71633C2.38523 4.81791 2.52301 4.87498 2.66667 4.87498ZM11.3333 8.66665H4.29167L5.15833 8.01665C5.27326 7.93045 5.34924 7.80213 5.36956 7.65992C5.38987 7.5177 5.35286 7.37324 5.26667 7.25831C5.18047 7.14339 5.05215 7.06741 4.90994 7.04709C4.76772 7.02677 4.62326 7.06379 4.50833 7.14998L2.34167 8.77498C2.27542 8.82553 2.22172 8.89069 2.18477 8.96537C2.14781 9.04006 2.12858 9.12227 2.12858 9.20561C2.12858 9.28894 2.14781 9.37115 2.18477 9.44584C2.22172 9.52053 2.27542 9.58568 2.34167 9.63623L4.4325 11.2612C4.52705 11.3346 4.64324 11.3746 4.76292 11.375C4.84564 11.3748 4.92722 11.3556 5.00139 11.319C5.07557 11.2824 5.14037 11.2293 5.19083 11.1637C5.2788 11.0508 5.31849 10.9077 5.30123 10.7656C5.28398 10.6235 5.21118 10.494 5.09875 10.4054L4.24833 9.74998H11.3333C11.477 9.74998 11.6148 9.69291 11.7164 9.59133C11.8179 9.48975 11.875 9.35197 11.875 9.20831C11.875 9.06465 11.8179 8.92688 11.7164 8.8253C11.6148 8.72371 11.477 8.66665 11.3333 8.66665Z"/>
</svg>
