<?xml version="1.0" encoding="UTF-8"?>
<svg id="Layer_1" data-name="Layer 1" xmlns="http://www.w3.org/2000/svg" viewBox="0 0 48 48" width="48px" height="48px" fill="currentColor">
  <!-- <path d="M23.89,46.33c-.88-.87-1.24-2.2-1.39-3.96l-7.7,1.7c-.43.17-.6-.02-.64-.4l.15-1.82c.07-.29.21-.52.48-.67l6.81-4.75-.4-9.92-18.98,3.61c-.46.11-.67-.05-.6-.55l.33-2.88,18.91-10.43-.3-8.86c.2-2.68,1.05-4.63,2.41-5.44.75-.45,1.14-.48,1.9-.1,1.47.73,2.4,2.74,2.6,5.55l-.3,8.86,18.91,10.43.33,2.88c.07.5-.14.67-.6.55l-18.99-3.59-.4,9.92,6.81,4.75c.26.15.41.38.48.67l.15,1.82c-.04.37-.21.57-.64.4l-7.7-1.7c-.15,1.76-.51,3.09-1.4,3.97-.08.07-.13.07-.21,0h0v-.02Z" style="stroke: #000; stroke-width: 2px;"/> -->
  <path d="M23.89,46.33c-.88-.87-1.24-2.2-1.39-3.96l-7.7,1.7c-.43.17-.6-.02-.64-.4l.15-1.82c.07-.29.21-.52.48-.67l6.81-4.75-.4-9.92-18.98,3.61c-.46.11-.67-.05-.6-.55l.33-2.88,18.91-10.43-.3-8.86c.2-2.68,1.05-4.63,2.41-5.44.75-.45,1.14-.48,1.9-.1,1.47.73,2.4,2.74,2.6,5.55l-.3,8.86,18.91,10.43.33,2.88c.07.5-.14.67-.6.55l-18.99-3.59-.4,9.92,6.81,4.75c.26.15.41.38.48.67l.15,1.82c-.04.37-.21.57-.64.4l-7.7-1.7c-.15,1.76-.51,3.09-1.4,3.97-.08.07-.13.07-.21,0h0v-.02Z"/>
</svg>
