<svg xmlns="http://www.w3.org/2000/svg" width="14" height="20" viewBox="0 0 14 20" fill="currentColor">
  <path d="M7 0.5C7.79565 0.5 8.55871 0.816071 9.12132 1.37868C9.68393 1.94129 10 2.70435 10 3.5V9.5C10 10.2956 9.68393 11.0587 9.12132 11.6213C8.55871 12.1839 7.79565 12.5 7 12.5C6.20435 12.5 5.44129 12.1839 4.87868 11.6213C4.31607 11.0587 4 10.2956 4 9.5V3.5C4 2.70435 4.31607 1.94129 4.87868 1.37868C5.44129 0.816071 6.20435 0.5 7 0.5ZM14 9.5C14 13.03 11.39 15.94 8 16.43V19.5H6V16.43C2.61 15.94 0 13.03 0 9.5H2C2 10.8261 2.52678 12.0979 3.46447 13.0355C4.40215 13.9732 5.67392 14.5 7 14.5C8.32608 14.5 9.59785 13.9732 10.5355 13.0355C11.4732 12.0979 12 10.8261 12 9.5H14Z"/>
</svg>
